<?xml version="1.0" encoding="UTF-8"?><svg id="_레이어_2" xmlns="http://www.w3.org/2000/svg" viewBox="0 0 83.11 28.96"><defs><style>.cls-1{fill:#de573c;}</style></defs><g id="_레이어_1-2"><path class="cls-1" d="m32.8,10.99c-1.13,0-1.88.72-1.88,2.54v.84c0,1.82.76,2.55,1.88,2.55s1.88-.73,1.88-2.55v-.84c0-1.82-.76-2.54-1.88-2.54Z"/><path class="cls-1" d="m68.63,0H14.48C6.48,0,0,6.48,0,14.48h0c0,8,6.48,14.48,14.48,14.48h54.15c8,0,14.48-6.48,14.48-14.48h0c0-8-6.48-14.48-14.48-14.48Zm-33.12,14.52c0,2-1.01,3.19-2.71,3.19s-2.71-1.19-2.71-3.19v-1.14c0-2,1.01-3.18,2.71-3.18s2.71,1.19,2.71,3.19v1.13Zm3.02,5.88h-.85v-10.96h.85v10.96Zm6.89-2.79c-.53-.53-1.16-1.26-1.57-1.71-.35-.4-.6-.78-.65-.91h-.01c-.04.13-.24.47-.6.9-.44.52-1,1.13-1.75,1.87l-.56-.56c.71-.67,1.43-1.44,1.79-1.91.58-.73.7-1.22.7-2.29v-1.08h-2.13v-.74h2.13v-1.5h.84v1.5h2.03v.74h-2.03v1.08c0,1.12.13,1.51.73,2.28.4.49.97,1.13,1.64,1.8l-.55.54Zm2.32,2.25h-.84v-5.6h-1.91v-.77h1.91v-3.83h.84v10.19Zm2.12.54h-.84v-10.96h.84v10.96Z"/></g></svg>