<?xml version="1.0" encoding="UTF-8"?><svg id="_레이어_2" xmlns="http://www.w3.org/2000/svg" viewBox="0 0 84.11 29.96"><defs><style>.cls-1{fill:#de573c;}</style></defs><g id="_레이어_1-2"><path class="cls-1" d="m69.13,29.96H14.98C6.72,29.96,0,23.24,0,14.98S6.72,0,14.98,0h54.15c8.26,0,14.98,6.72,14.98,14.98s-6.72,14.98-14.98,14.98ZM14.98,1C7.27,1,1,7.27,1,14.98s6.27,13.98,13.98,13.98h54.15c7.71,0,13.98-6.27,13.98-13.98s-6.27-13.98-13.98-13.98H14.98Z"/><path class="cls-1" d="m34.6,18.61v-2.52h.86v2.52h4.61v.73h-10.07v-.73h4.61Zm-3.35-7.7h7.56v.73h-3.35v.42c0,1.24.23,1.51,1.38,2.28.55.36,1.49.9,2.5,1.4l-.43.64c-.84-.43-1.82-1-2.53-1.45-.83-.54-1.22-.85-1.33-1.08h-.01c-.1.23-.5.55-1.33,1.09-.71.46-1.7,1.03-2.55,1.47l-.44-.66c1.01-.5,1.97-1.06,2.52-1.42,1.15-.77,1.38-1.04,1.38-2.28v-.42h-3.35v-.73Z"/><path class="cls-1" d="m48.55,18.53c-1.98.2-3.67.28-7.34.28v-.74c1.21,0,2.24,0,3.14-.02v-1.37c-1.36-.12-2.27-.94-2.27-1.82v-.46c0-.97,1.07-1.83,2.62-1.83s2.61.86,2.61,1.83v.46c0,.85-.84,1.64-2.11,1.81v1.36c1.26-.04,2.28-.11,3.27-.22l.07.73Zm-3.44-7.33h2.71v.74h-6.33v-.74h2.78v-1.37h.84v1.37Zm-2.22,3.24v.36c0,.56.7,1.18,1.81,1.18s1.81-.61,1.81-1.18v-.36c0-.56-.7-1.16-1.81-1.16s-1.81.6-1.81,1.16Zm7.27,6.45h-.85v-10.96h.85v10.96Z"/></g></svg>